The Adventures of Tintin 2011 720p BluRay x264-DTRG


Intrepid reporter Tintin and Captain Haddock set off on a treasure hunt for a sunken ship commanded by Haddock's ancestor.
 
http://www.imdb.com/title/tt0983193/

Source -  The Adventures of Tintin 2011 1080p BluRay x264-MaxHD   Thanks
Come Join Us AT
 
http://publichd.org/

Download High Definition Torrents
Movies / TV Shows / Documentaries

-----------------------------------------------------------------
-----------------------------------------------------------------

Complete name                    : The.Adventures.of.Tintin.2011.720p.BluRay.x264-DTRG.mkv
Format                           : Matroska
Format version                   : Version 2
File size                        : 1.41 GiB
Duration                         : 1h 46mn
Overall bit rate                 : 1 884 Kbps
Movie name                       : The.Adventures.of.Tintin.2011.720p.BluRay.x264-DTRG
Encoded date                     : UTC 2012-02-22 03:02:25
Writing application              : mkvmerge v5.2.1 ('A Far Off Place'wink.gif built on Jan  2 2012 23:21:10


Video
ID                               : 1
Format                           : AVC
Format/Info                      : Advanced Video Codec
Format profile                   : High@L3.1
Format settings, CABAC           : Yes
Format settings, ReFrames        : 4 frames
Format settings, GOP             : M=4, N=41
Muxing mode                      : Header stripping
Codec ID                         : V_MPEG4/ISO/AVC
Duration                         : 1h 46mn
Bit rate                         : 1 500 Kbps
Width                            : 1 280 pixels
Height                           : 544 pixels
Display aspect ratio             : 2.35:1
Frame rate mode                  : Variable
Frame rate                       : 23.976 fps
Color space                      : YUV
Chroma subsampling               : 4:2:0
Bit depth                        : 8 bits
Scan type                        : Progressive
Bits/(Pixel*Frame)               : 0.090
Stream size                      : 1.09 GiB (78%)
Writing library                  : x264 core 112


Audio
ID                               : 2
Format                           : AC-3
Format/Info                      : Audio Coding 3
Mode extension                   : CM (complete main)
Muxing mode                      : Header stripping
Codec ID                         : A_AC3
Duration                         : 1h 46mn
Bit rate mode                    : Constant
Bit rate                         : 384 Kbps
Channel(s)                       : 6 channels
Channel positions                : Front: L C R, Side: L R, LFE
Sampling rate                    : 48.0 KHz
Bit depth                        : 16 bits
Compression mode                 : Lossy
Stream size                      : 294 MiB (20%)
Language                         : English

Menu
00:00:00.000                     : en:Chapter 1
00:05:39.297                     : en:Chapter 2
00:12:12.315                     : en:Chapter 3
00:17:11.530                     : en:Chapter 4
00:25:36.952                     : en:Chapter 5
00:32:37.747                     : en:Chapter 6
00:37:55.481                     : en:Chapter 7
00:42:29.839                     : en:Chapter 8
00:50:52.591                     : en:Chapter 9
00:56:27.217                     : en:Chapter 10
01:02:19.611                     : en:Chapter 11
01:11:58.982                     : en:Chapter 12
01:20:03.966                     : en:Chapter 13
01:27:30.996                     : en:Chapter 14
01:34:12.814                     : en:Chapter 15
01:40:30.483                     : en:Chapter 16



Encoder - LiMeY
Good things come in small packages, So feel the wrath of my compression


 
http://i.imgur.com/9zgun.jpg
 
http://i.imgur.com/u8InU.jpg
 
http://i.imgur.com/fRqNr.png